# xmcd
#
# Track frame offsets: 
#        150
#        16237
#        35060
#        55037
#        71352
#        90092
#        108002
#        123601
#        138155
#        150786
#        168071
#        183298
#        201151
#        213858
#        231111
#        251365
#        262672
#        278290
#
# Disc length: 3980 seconds
#
# Revision: 0
# Processed by: cddbd v1.5.2PL0 Copyright (c) Steve Scherf et al.
# Submitted via: ExactAudioCopy v1.1
#
DISCID=ce0f8a12
DTITLE=Various Artist - MNM Party 2017 Volume 1 - CD 2 - Party Flash Backs
DYEAR=2017
DGENRE=Pop
TTITLE0=The Black Eyed Peas - Pump It
TTITLE1=2 Brothers On The 4th Floor - Never Alone
TTITLE2=Justin Timberlake - Rock Your Body
TTITLE3=Mo-Do - Eins, Zwei, Polizei
TTITLE4=Usher Feat. Lil' Jon and Ludacris - Yeah!
TTITLE5=Lasgo - Alone
TTITLE6=Moussier Tombola - Logobitombo
TTITLE7=50 Cent - In Da Club
TTITLE8=Timmy Trumpet and Savage - Freaks
TTITLE9=Alcazar - Crying At The Discoteque
TTITLE10=Dizzee Rascal Feat. Calvin Harris And Chrome - Dance Wiv Me
TTITLE11=Beats International - Dub Be Good To Me
TTITLE12=Supermode - Tell Me Why
TTITLE13=112 - Dance With Me
TTITLE14=Steve Angello - Knas
TTITLE15=Ida Corr Vs. Fedde Le Grand - Let Me Think About It (Fedde Le
TTITLE15=Grand Radio Edit)
TTITLE16=DJ Paul Elstak - Rainbow In The Sky
TTITLE17=Indeep - Last Night A D.J. Saved My Life
EXTD=
EXTT0=
EXTT1=
EXTT2=
EXTT3=
EXTT4=
EXTT5=
EXTT6=
EXTT7=
EXTT8=
EXTT9=
EXTT10=
EXTT11=
EXTT12=
EXTT13=
EXTT14=
EXTT15=
EXTT16=
EXTT17=
PLAYORDER=
